<svg width="550" height="199" viewBox="0 0 550 199" fill="none" xmlns="http://www.w3.org/2000/svg">
<path d="M102.277 92.3896C100.421 82.3567 87.3583 76.8341 74.3875 83.9215L77.7333 95.381L83.0042 112.34L85.3875 120.049C95.0812 113.79 104.867 106.265 102.277 92.3666V92.3896ZM89.3979 107.807C87.9215 102.92 86.4166 98.0414 84.8833 93.172L83.5312 88.5007C86.069 87.951 88.7146 88.2167 91.0937 89.2601C92.3083 89.8584 94.4396 91.193 94.8979 93.7703C95.975 99.523 94.05 103.642 89.3979 107.761V107.807ZM298.123 76.4659C296.332 74.8088 294.22 73.5399 291.919 72.7381C289.618 71.9363 287.178 71.6189 284.749 71.8056C282.321 71.9924 279.957 72.6792 277.805 73.8235C275.652 74.9677 273.758 76.5447 272.239 78.4563C270.72 80.3679 269.609 82.5732 268.976 84.9346C268.343 87.296 268.201 89.7631 268.559 92.182C268.917 94.6009 269.767 96.9199 271.057 98.9945C272.346 101.069 274.047 102.855 276.054 104.24L299.383 77.7085C298.978 77.2791 298.558 76.8646 298.123 76.4659ZM276.1 95.1509C274.971 93.0838 274.502 90.7185 274.757 88.375C275.011 86.0315 275.975 83.8228 277.521 82.048C279.066 80.2731 281.116 79.0176 283.395 78.4514C285.674 77.8852 288.071 78.0355 290.263 78.8821L276.1 95.1509ZM449.144 100.328C449.356 101.116 449.457 101.929 449.442 102.745C449.212 107.692 444.56 111.535 439.038 111.259C433.515 111.075 429.183 106.864 429.413 101.939C429.573 97.2679 433.698 93.6092 438.785 93.3791C437.791 93.1541 436.779 93.0231 435.76 92.9879C426.479 92.5967 418.917 99.2009 418.619 107.393C418.229 116.137 425.242 123.317 434.34 123.708C443.644 124.053 451.183 117.449 451.527 108.727C451.626 105.75 450.778 102.815 449.144 100.328ZM168.323 110.361C168.323 115.332 163.808 119.336 158.285 119.336C152.74 119.336 148.248 115.355 148.248 110.361C148.248 105.713 152.212 101.893 157.277 101.433C156.279 101.25 155.267 101.157 154.252 101.157C144.994 101.157 137.683 108.06 137.683 116.252C137.683 125.042 145.017 131.9 154.092 131.9C163.373 131.9 170.66 125.042 170.66 116.252C170.649 113.284 169.694 110.398 167.933 108.014C168.162 108.704 168.323 109.51 168.323 110.361ZM506.756 60.082L502.631 77.0872L498.827 58.2181L447.998 47.0117L448.365 75.3844L456.019 77.1102L455.469 82.2417L455.24 82.0806C445.752 77.0642 433.996 76.558 422.927 80.746C419.192 82.1266 415.731 84.0366 412.615 86.3147L404.937 37.7152H371.135L370.219 43.3299H334.629L330.573 68.297L327.594 64.6382C323.358 59.4287 318.03 55.2221 311.989 52.3184C305.948 49.4147 299.343 47.8856 292.646 47.8401L322.85 31.5252L301.812 0L263.702 44.0202L270.279 52.0741C264.571 54.3859 259.336 57.7321 254.833 61.9459L222.2 32.8599L210.81 54.7894L211.246 33.7113L160.233 50.0952L161.54 77.6164L170.225 75.3614L171.508 89.2831C161.585 84.8419 149.646 84.911 138.6 89.6052C135.371 91.0235 132.305 92.7904 129.456 94.8748C131.477 86.779 130.859 78.2457 127.692 70.529C123.872 61.7571 117.296 54.4829 108.969 49.819C103.014 45.9123 96.2195 43.483 89.1458 42.7316C71.5 39.6251 50.2792 42.8007 29.425 51.752C22.0432 54.8621 14.9301 58.5795 8.15833 62.8663L0 68.0668L4.92708 76.4199L20.2125 102.353C20.2125 102.353 24.8875 110.315 24.9104 110.292L33.1833 106.219L34.3292 105.69L72.325 190.831L75.9917 199L84.4708 196.285L105.004 189.658L114.033 186.781L111.65 177.577L100.742 135.489C103.881 133.165 106.792 130.68 109.519 128.103C108.9 133.142 109.221 138.228 110.596 143.106C113.438 153.3 120.129 161.354 129.342 165.795C139.31 170.627 151.456 170.627 162.708 165.841C168.369 163.448 173.41 159.927 177.627 155.739L179.185 172.491L215.165 167.176L215.119 134.799L290.331 172.077V135.95C301.217 134.862 311.744 131.441 321.2 125.917L318.037 145.315L358.6 151.735L360.823 137.077L371.387 156.729L377.873 144.188L380.256 164.783L426.204 172.882L423.775 157.373C431.979 158.254 440.258 156.668 447.563 152.817L445.729 169.339L476.346 173.688L476.575 186.275L508.429 196.354L550 70.6211L506.756 60.082ZM327.112 78.721L329.221 76.4889L326.654 92.3666L320.031 86.3377L327.112 78.721ZM300.14 13.9908L311.3 29.2011L279.446 45.0557L277.223 41.6961L300.14 13.9908ZM89.2604 131.14L101.979 180.108L81.4 186.712L39.2104 92.0904C36.9187 93.31 32.7021 95.312 28.7833 97.2219L13.5208 71.3114C19.6167 67.4225 26.2625 63.9709 33.3438 60.9564C53.2354 52.4653 72.2333 49.9111 87.4271 52.6264C92.7667 53.2477 98.45 54.8125 103.469 58.1491C110.298 62.0149 115.5 67.4916 118.525 74.5099C125.858 91.5382 113.575 116.091 89.2604 131.14ZM183.815 122.442C183.585 129.76 180.904 137.031 176.458 143.221C172.104 149.343 166.17 154.156 159.294 157.143C141.442 164.736 123.612 157.143 118.869 140.115C114.217 123.685 124.965 104.102 142.244 96.6236C153.312 91.9754 164.381 93.0569 172.31 98.4645C177.192 101.824 180.95 106.841 182.692 113.123C183.543 116.16 183.922 119.311 183.815 122.465V122.442ZM280.89 157.051L206.319 119.566L206.456 158.846L187.138 161.492L185.785 145.315C191.744 135.052 193.921 122.948 190.827 111.857C189.19 105.924 186.029 100.528 181.66 96.2094L178.888 63.2345L170.248 65.4896L169.858 57.1596L200.842 47.8631L202.744 79.9866L225.592 47.771L247.912 69.1023L216.7 102.146L246.033 113.813C249.287 120.026 254.283 125.318 260.562 129.23C266.612 132.981 273.579 135.213 280.935 135.927V157.051H280.89ZM242.16 102.745L231.756 98.7406L241.45 89.3061C241.015 93.6322 241.221 98.1654 242.137 102.745H242.16ZM323.331 112.57C316.181 118.53 307.977 122.396 297.229 124.996C294.952 125.547 292.639 125.939 290.308 126.17C273.19 127.85 258.821 119.957 253.367 107.163C252.693 105.612 252.164 104.002 251.785 102.353C249.265 91.5842 251.419 81.9426 256.712 74.3949C258.262 72.184 260.07 70.1677 262.098 68.389C267.426 63.7293 273.818 60.4645 280.706 58.8854C297.023 54.9505 311.392 59.9439 320.192 70.7822L289.14 104.01C291.799 104.232 294.476 103.975 297.046 103.251C304.448 101.433 308.596 97.4981 312.24 93.218L324.66 104.401L328.419 107.853C326.802 109.51 325.105 111.084 323.331 112.57ZM389.262 156.913L382.525 111.949L372.946 136.755L358.623 105.736H358.462L352.825 141.633L328.969 137.491L332.315 117.472C333.218 116.615 334.104 115.74 334.973 114.848L342.719 106.841L335.179 100.075L343.2 52.3733H367.262L373.267 85.4172L380.004 47.1498H397.237L404.387 93.7703C395.312 104.148 390.867 118.162 393.938 130.933C395.123 136.198 397.538 141.103 400.985 145.245C404.432 149.386 408.811 152.644 413.76 154.75L414.677 160.802L389.262 156.913ZM448.731 142.255C446.063 144.16 443.159 145.707 440.092 146.857C434.472 149.117 428.33 149.732 422.377 148.629C418.684 147.921 415.184 146.431 412.11 144.257C407.123 140.591 403.623 135.238 402.256 129.184C400.423 121.453 402.096 113.169 406.244 105.897C408.329 102.353 410.987 99.0398 414.127 96.1634C417.61 93.0109 421.69 90.4106 426.204 88.6848C436.723 84.7269 447.104 86.1075 454.392 91.3541C459.268 94.8709 462.705 100.048 464.062 105.92C466.308 115.263 463.65 125.203 457.783 133.234C455.264 136.707 452.208 139.752 448.731 142.255ZM502.425 184.618L484.779 179.349L483.267 114.043L474.375 164.437L455.125 161.331L456.546 146.834C469.081 136.157 475.75 119.336 472.106 104.125C470.585 97.5424 467.118 91.5749 462.16 87.005L463.788 69.9077L456.523 67.9518L456.981 58.8394L490.165 65.5126L501.325 118.622L512.76 71.0123L537.969 76.627L502.425 184.618Z" fill="#a0bc58"/>
</svg>
