<svg width="282" height="282" viewBox="0 0 282 282" fill="none" xmlns="http://www.w3.org/2000/svg">
<path d="M272 154C277.523 154 282.045 158.485 281.57 163.988C280.416 177.376 276.946 190.538 271.267 202.983C264.181 218.513 253.795 232.624 240.702 244.51C227.609 256.396 212.065 265.824 194.958 272.257C177.851 278.689 159.516 282 141 282C122.484 282 104.149 278.689 87.0416 272.257C69.9347 265.824 54.391 256.396 41.2979 244.51C28.2049 232.624 17.8189 218.513 10.733 202.983C5.0543 190.538 1.58421 177.376 0.429892 163.988C-0.0445116 158.485 4.47715 154 10 154H74.6C80.1229 154 84.495 158.527 85.6695 163.923C86.3885 167.227 87.4666 170.467 88.8932 173.593C91.7276 179.805 95.882 185.45 101.119 190.204C106.356 194.958 112.574 198.73 119.417 201.303C126.259 203.876 133.593 205.2 141 205.2C148.407 205.2 155.741 203.876 162.583 201.303C169.426 198.73 175.644 194.958 180.881 190.204C186.118 185.45 190.272 179.805 193.107 173.593C194.533 170.467 195.611 167.227 196.331 163.923C197.505 158.527 201.877 154 207.4 154H272Z" fill="#F2F2F2"/>
<path d="M10 128C4.47714 128 -0.0445251 123.515 0.429901 118.012C1.5842 104.624 5.05429 91.4621 10.733 79.0165C17.8189 63.4868 28.2049 49.3762 41.2979 37.4903C54.391 25.6044 69.9347 16.176 87.0416 9.74342C104.149 3.31082 122.484 0 141 0C159.516 0 177.851 3.31082 194.958 9.74342C212.065 16.176 227.609 25.6044 240.702 37.4903C253.795 49.3762 264.181 63.4868 271.267 79.0165C276.946 91.4621 280.416 104.624 281.57 118.012C282.045 123.515 277.523 128 272 128H207.4C201.877 128 197.505 123.473 196.331 118.077C195.611 114.773 194.533 111.533 193.107 108.407C190.272 102.195 186.118 96.5505 180.881 91.7961C175.644 87.0418 169.426 83.2704 162.583 80.6974C155.741 78.1243 148.407 76.8 141 76.8C133.593 76.8 126.259 78.1243 119.417 80.6974C112.574 83.2704 106.356 87.0418 101.119 91.7961C95.882 96.5505 91.7276 102.195 88.8932 108.407C87.4666 111.533 86.3885 114.773 85.6695 118.077C84.495 123.473 80.1228 128 74.6 128H10Z" fill="#C23D3D"/>
<circle cx="141" cy="143" r="40" fill="#F2F2F2"/>
</svg>
