<svg width="189" height="32" viewBox="0 0 189 32" fill="none" xmlns="http://www.w3.org/2000/svg">
<path d="M27.2 17.4752C29.851 17.4752 32.0744 19.6902 31.1407 22.1713C31.0313 22.4617 30.9118 22.7493 30.7821 23.0336C29.978 24.7958 28.7994 26.397 27.3137 27.7458C25.828 29.0945 24.0641 30.1644 22.1229 30.8944C20.1817 31.6243 18.1011 32 16 32C13.8988 32 11.8183 31.6243 9.87706 30.8944C7.93585 30.1644 6.17203 29.0945 4.68629 27.7458C3.20055 26.397 2.022 24.7958 1.21793 23.0336C1.08821 22.7493 0.968651 22.4617 0.859345 22.1713C-0.0744478 19.6902 2.14903 17.4752 4.8 17.4752L7.30639 17.4752C8.57311 17.4752 9.56134 18.5461 10.0872 19.6985V19.6985C10.4088 20.4034 10.8802 21.0439 11.4745 21.5834C12.0688 22.1229 12.7743 22.5509 13.5508 22.8428C14.3273 23.1348 15.1595 23.2851 16 23.2851C16.8405 23.2851 17.6727 23.1348 18.4492 22.8428C19.2257 22.5509 19.9312 22.1229 20.5255 21.5834C21.1198 21.0439 21.5912 20.4034 21.9128 19.6985V19.6985C22.4387 18.5461 23.4269 17.4752 24.6936 17.4752H27.2Z" fill="#F2F2F2"/>
<path d="M4.8 14.5248C2.14903 14.5248 -0.0744477 12.3098 0.859346 9.82871C0.968651 9.53829 1.08821 9.25071 1.21793 8.96642C2.022 7.20419 3.20055 5.60298 4.68629 4.25423C6.17203 2.90547 7.93586 1.83558 9.87707 1.10564C11.8183 0.375703 13.8989 7.54602e-06 16 7.62939e-06C18.1012 7.71277e-06 20.1817 0.375703 22.1229 1.10564C24.0641 1.83558 25.828 2.90548 27.3137 4.25423C28.7994 5.60298 29.978 7.20419 30.7821 8.96642C30.9118 9.25071 31.0313 9.53829 31.1407 9.82871C32.0744 12.3098 29.851 14.5248 27.2 14.5248L24.6936 14.5248C23.4269 14.5248 22.4387 13.4539 21.9128 12.3015V12.3015C21.5912 11.5966 21.1198 10.9561 20.5255 10.4166C19.9312 9.87709 19.2257 9.44913 18.4492 9.15716C17.6727 8.86518 16.8405 8.7149 16 8.7149C15.1595 8.7149 14.3273 8.86518 13.5508 9.15716C12.7743 9.44913 12.0688 9.87709 11.4745 10.4166C10.8802 10.9561 10.4088 11.5966 10.0872 12.3015V12.3015C9.56134 13.4539 8.57311 14.5248 7.30638 14.5248L4.8 14.5248Z" fill="#C23D3D"/>
<circle cx="16" cy="16.2269" r="4.53901" fill="#F2F2F2"/>
<path d="M184.2 17.4752C186.851 17.4752 189.074 19.6902 188.141 22.1713C188.031 22.4617 187.912 22.7493 187.782 23.0336C186.978 24.7958 185.799 26.397 184.314 27.7458C182.828 29.0945 181.064 30.1644 179.123 30.8944C177.182 31.6243 175.101 32 173 32C170.899 32 168.818 31.6243 166.877 30.8944C164.936 30.1644 163.172 29.0945 161.686 27.7458C160.201 26.397 159.022 24.7958 158.218 23.0336C158.088 22.7493 157.969 22.4617 157.859 22.1713C156.926 19.6902 159.149 17.4752 161.8 17.4752L164.306 17.4752C165.573 17.4752 166.561 18.5461 167.087 19.6985V19.6985C167.409 20.4034 167.88 21.0439 168.475 21.5834C169.069 22.1229 169.774 22.5509 170.551 22.8428C171.327 23.1348 172.16 23.2851 173 23.2851C173.84 23.2851 174.673 23.1348 175.449 22.8428C176.226 22.5509 176.931 22.1229 177.525 21.5834C178.12 21.0439 178.591 20.4034 178.913 19.6985V19.6985C179.439 18.5461 180.427 17.4752 181.694 17.4752H184.2Z" fill="#F2F2F2"/>
<path d="M161.8 14.5248C159.149 14.5248 156.926 12.3098 157.859 9.82871C157.969 9.53829 158.088 9.25071 158.218 8.96642C159.022 7.20419 160.201 5.60298 161.686 4.25423C163.172 2.90547 164.936 1.83558 166.877 1.10564C168.818 0.375703 170.899 7.54602e-06 173 7.62939e-06C175.101 7.71277e-06 177.182 0.375703 179.123 1.10564C181.064 1.83558 182.828 2.90548 184.314 4.25423C185.799 5.60298 186.978 7.20419 187.782 8.96642C187.912 9.25071 188.031 9.53829 188.141 9.82871C189.074 12.3098 186.851 14.5248 184.2 14.5248L181.694 14.5248C180.427 14.5248 179.439 13.4539 178.913 12.3015V12.3015C178.591 11.5966 178.12 10.9561 177.525 10.4166C176.931 9.87709 176.226 9.44913 175.449 9.15716C174.673 8.86518 173.84 8.7149 173 8.7149C172.16 8.7149 171.327 8.86518 170.551 9.15716C169.774 9.44913 169.069 9.87709 168.475 10.4166C167.88 10.9561 167.409 11.5966 167.087 12.3015V12.3015C166.561 13.4539 165.573 14.5248 164.306 14.5248L161.8 14.5248Z" fill="#C23D3D"/>
<circle cx="173" cy="16.2269" r="4.53901" fill="#F2F2F2"/>
<path d="M49.9575 10.7578V20H48.0596V10.7578H49.9575ZM52.8013 10.7578V12.2495H45.2603V10.7578H52.8013ZM54.5367 10.7578H57.9835C58.6902 10.7578 59.2975 10.8636 59.8053 11.0752C60.3173 11.2868 60.7109 11.5999 60.9859 12.0146C61.261 12.4294 61.3985 12.9393 61.3985 13.5444C61.3985 14.0396 61.3139 14.4648 61.1446 14.8203C60.9796 15.1715 60.7447 15.4657 60.44 15.7026C60.1396 15.9354 59.7862 16.1216 59.38 16.2612L58.777 16.5786H55.7809L55.7682 15.0933H57.9962C58.3305 15.0933 58.6077 15.034 58.8277 14.9155C59.0478 14.797 59.2128 14.632 59.3229 14.4204C59.4371 14.2088 59.4942 13.9634 59.4942 13.6841C59.4942 13.3879 59.4392 13.1318 59.3292 12.916C59.2192 12.7002 59.052 12.5352 58.8277 12.4209C58.6035 12.3066 58.322 12.2495 57.9835 12.2495H56.441V20H54.5367V10.7578ZM59.7037 20L57.5963 15.8804L59.6085 15.8677L61.7413 19.9111V20H59.7037ZM67.2727 12.3384L64.759 20H62.7341L66.1682 10.7578H67.4567L67.2727 12.3384ZM69.361 20L66.841 12.3384L66.6379 10.7578H67.9392L71.3923 20H69.361ZM69.2468 16.5596V18.0513H64.3654V16.5596H69.2468ZM74.9241 10.7578V20H73.0262V10.7578H74.9241ZM84.8798 10.7578V20H82.9755L79.2621 13.8047V20H77.3578V10.7578H79.2621L82.9818 16.9595V10.7578H84.8798ZM93.3882 18.5146V20H88.4688V18.5146H93.3882ZM89.0908 10.7578V20H87.1865V10.7578H89.0908ZM92.7471 14.522V15.9692H88.4688V14.522H92.7471ZM93.3818 10.7578V12.2495H88.4688V10.7578H93.3818ZM95.149 10.7578H98.5958C99.3025 10.7578 99.9098 10.8636 100.418 11.0752C100.93 11.2868 101.323 11.5999 101.598 12.0146C101.873 12.4294 102.011 12.9393 102.011 13.5444C102.011 14.0396 101.926 14.4648 101.757 14.8203C101.592 15.1715 101.357 15.4657 101.052 15.7026C100.752 15.9354 100.399 16.1216 99.9923 16.2612L99.3893 16.5786H96.3932L96.3805 15.0933H98.6085C98.9428 15.0933 99.22 15.034 99.44 14.9155C99.6601 14.797 99.8251 14.632 99.9352 14.4204C100.049 14.2088 100.107 13.9634 100.107 13.6841C100.107 13.3879 100.052 13.1318 99.9415 12.916C99.8315 12.7002 99.6643 12.5352 99.44 12.4209C99.2158 12.3066 98.9343 12.2495 98.5958 12.2495H97.0533V20H95.149V10.7578ZM100.316 20L98.2086 15.8804L100.221 15.8677L102.354 19.9111V20H100.316ZM113.372 16.9341H115.27C115.232 17.5562 115.06 18.1084 114.756 18.5908C114.455 19.0732 114.034 19.4499 113.492 19.7207C112.955 19.9915 112.308 20.127 111.55 20.127C110.958 20.127 110.427 20.0254 109.957 19.8223C109.487 19.6149 109.085 19.3187 108.751 18.9336C108.421 18.5485 108.169 18.083 107.995 17.5371C107.822 16.9912 107.735 16.3797 107.735 15.7026V15.0615C107.735 14.3844 107.824 13.7729 108.002 13.2271C108.184 12.6769 108.442 12.2093 108.776 11.8242C109.115 11.4391 109.519 11.1429 109.989 10.9355C110.458 10.7282 110.983 10.6245 111.563 10.6245C112.333 10.6245 112.983 10.7642 113.512 11.0435C114.045 11.3228 114.457 11.7078 114.749 12.1987C115.046 12.6896 115.223 13.2482 115.283 13.8745H113.378C113.357 13.5021 113.283 13.1868 113.156 12.9287C113.029 12.6663 112.837 12.4696 112.578 12.3384C112.325 12.203 111.986 12.1353 111.563 12.1353C111.245 12.1353 110.968 12.1945 110.731 12.313C110.494 12.4315 110.295 12.6113 110.135 12.8525C109.974 13.0938 109.853 13.3984 109.773 13.7666C109.697 14.1305 109.658 14.5579 109.658 15.0488V15.7026C109.658 16.1808 109.694 16.6019 109.766 16.9658C109.838 17.3255 109.948 17.6302 110.096 17.8799C110.249 18.1253 110.443 18.3115 110.68 18.4385C110.922 18.5612 111.212 18.6226 111.55 18.6226C111.948 18.6226 112.276 18.5591 112.534 18.4321C112.792 18.3052 112.989 18.1169 113.124 17.8672C113.264 17.6175 113.346 17.3065 113.372 16.9341ZM120.928 12.3384L118.414 20H116.39L119.824 10.7578H121.112L120.928 12.3384ZM123.017 20L120.496 12.3384L120.293 10.7578H121.595L125.048 20H123.017ZM122.902 16.5596V18.0513H118.021V16.5596H122.902ZM126.555 10.7578H130.001C130.708 10.7578 131.315 10.8636 131.823 11.0752C132.335 11.2868 132.729 11.5999 133.004 12.0146C133.279 12.4294 133.417 12.9393 133.417 13.5444C133.417 14.0396 133.332 14.4648 133.163 14.8203C132.998 15.1715 132.763 15.4657 132.458 15.7026C132.158 15.9354 131.804 16.1216 131.398 16.2612L130.795 16.5786H127.799L127.786 15.0933H130.014C130.348 15.0933 130.626 15.034 130.846 14.9155C131.066 14.797 131.231 14.632 131.341 14.4204C131.455 14.2088 131.512 13.9634 131.512 13.6841C131.512 13.3879 131.457 13.1318 131.347 12.916C131.237 12.7002 131.07 12.5352 130.846 12.4209C130.621 12.3066 130.34 12.2495 130.001 12.2495H128.459V20H126.555V10.7578ZM131.722 20L129.614 15.8804L131.626 15.8677L133.759 19.9111V20H131.722ZM138.37 20H136.358L136.371 18.5146H138.37C138.87 18.5146 139.291 18.4025 139.633 18.1782C139.976 17.9497 140.234 17.6175 140.408 17.1816C140.586 16.7458 140.674 16.2189 140.674 15.6011V15.1504C140.674 14.6764 140.624 14.2596 140.522 13.8999C140.425 13.5402 140.279 13.2376 140.084 12.9922C139.889 12.7467 139.65 12.5627 139.367 12.4399C139.083 12.313 138.757 12.2495 138.389 12.2495H136.32V10.7578H138.389C139.007 10.7578 139.572 10.8636 140.084 11.0752C140.6 11.2826 141.047 11.5809 141.423 11.9702C141.8 12.3595 142.09 12.825 142.293 13.3667C142.5 13.9041 142.604 14.5029 142.604 15.1631V15.6011C142.604 16.257 142.5 16.8558 142.293 17.3975C142.09 17.9391 141.8 18.4046 141.423 18.7939C141.051 19.179 140.605 19.4774 140.084 19.689C139.568 19.8963 138.997 20 138.37 20ZM137.437 10.7578V20H135.533V10.7578H137.437Z" fill="white"/>
</svg>
